<?xml version="1.0" encoding="utf-8"?>
<!-- Generator: Adobe Illustrator 18.1.1, SVG Export Plug-In . SVG Version: 6.00 Build 0)  -->
<svg version="1.1" id="Layer_1" xmlns="http://www.w3.org/2000/svg" xmlns:xlink="http://www.w3.org/1999/xlink" x="0px" y="0px"
	 viewBox="0 0 32 32" enable-background="new 0 0 32 32" xml:space="preserve">
<circle cx="16" cy="16.1" r="15"/>
<path fill="#FFFFFF" d="M24.5,12.1c-0.6,0.3-1.3,0.5-1.9,0.5c0.7-0.4,1.2-1.1,1.5-1.9c-0.7,0.4-1.4,0.7-2.2,0.8
	c-0.6-0.7-1.5-1.1-2.5-1.1c-1.9,0-3.4,1.5-3.4,3.4c0,0.3,0,0.5,0.1,0.8c-2.8-0.1-5.3-1.5-7-3.5c-0.3,0.5-0.5,1.1-0.5,1.7
	c0,1.2,0.6,2.2,1.5,2.8c-0.6,0-1.1-0.2-1.5-0.4c0,0,0,0,0,0c0,1.6,1.2,3,2.7,3.3c-0.3,0.1-0.6,0.1-0.9,0.1c-0.2,0-0.4,0-0.6-0.1
	C10.3,20,11.5,21,13,21c-1.2,0.9-2.6,1.5-4.2,1.5c-0.3,0-0.5,0-0.8,0c1.5,1,3.3,1.5,5.2,1.5c6.2,0,9.7-5.2,9.7-9.7
	c0-0.1,0-0.3,0-0.4C23.5,13.4,24.1,12.8,24.5,12.1z"/>
</svg>
